# 3ds Max Wavefront OBJ Exporter v0.97b - (c)2007 guruware
# File Created: 21.10.2019 16:33:07

#
# object world_bl_baseFloor_4x4_01a
#

v  -2.0000 0.0000 2.0000
v  2.0000 0.0000 2.0000
v  2.0000 0.0000 -2.0000
v  -2.0000 0.0000 -2.0000
# 4 vertices

vn 0.0000 1.0000 -0.0000
# 1 vertex normals

vt 0.5012 0.0012 0.0000
vt 0.9987 0.0012 0.0000
vt 0.9987 0.4988 0.0000
vt 0.5012 0.4988 0.0000
# 4 texture coords

o world_bl_baseFloor_4x4_01a
g world_bl_baseFloor_4x4_01a
s 4
f 1/1/1 2/2/1 3/3/1 4/4/1 
# 1 polygons

